<svg width="24" height="25" viewBox="0 0 24 25" fill="none" xmlns="http://www.w3.org/2000/svg">
<g clip-path="url(#clip0_9_12675)">
<path d="M12 24.7791C12.7956 24.7791 13.5587 24.463 14.1213 23.9004C14.6839 23.3378 15 22.5747 15 21.7791H9C9 22.5747 9.31607 23.3378 9.87868 23.9004C10.4413 24.463 11.2044 24.7791 12 24.7791Z" fill="#043C5A"/>
<path fill-rule="evenodd" clip-rule="evenodd" d="M12 3.6559L10.8045 3.8974C9.44844 4.1737 8.2295 4.91006 7.35398 5.98183C6.47846 7.05361 6.00015 8.39498 6 9.7789C6 10.7209 5.799 13.0744 5.3115 15.3919C5.0715 16.5424 4.7475 17.7409 4.317 18.7789H19.683C19.2525 17.7409 18.93 16.5439 18.6885 15.3919C18.201 13.0744 18 10.7209 18 9.7789C17.9995 8.39524 17.521 7.05422 16.6455 5.98275C15.7701 4.91128 14.5513 4.17515 13.1955 3.8989L12 3.6544V3.6559ZM21.33 18.7789C21.6645 19.4494 22.0515 19.9804 22.5 20.2789H1.5C1.9485 19.9804 2.3355 19.4494 2.67 18.7789C4.02 16.0789 4.5 11.0989 4.5 9.7789C4.5 6.1489 7.08 3.1189 10.5075 2.4274C10.4866 2.21883 10.5096 2.00819 10.5751 1.80906C10.6405 1.60993 10.747 1.42673 10.8876 1.27129C11.0283 1.11584 11.1999 0.991592 11.3915 0.906557C11.5831 0.821522 11.7904 0.777588 12 0.777588C12.2096 0.777588 12.4169 0.821522 12.6085 0.906557C12.8001 0.991592 12.9717 1.11584 13.1124 1.27129C13.253 1.42673 13.3595 1.60993 13.4249 1.80906C13.4904 2.00819 13.5134 2.21883 13.4925 2.4274C15.1879 2.77225 16.7121 3.69244 17.8069 5.03215C18.9016 6.37186 19.4998 8.04876 19.5 9.7789C19.5 11.0989 19.98 16.0789 21.33 18.7789Z" fill="#043C5A"/>
</g>
<defs>
<clipPath id="clip0_9_12675">
<rect width="24" height="24" fill="white" transform="translate(0 0.779053)"/>
</clipPath>
</defs>
</svg>
