<svg width="414" height="699" viewBox="0 0 414 699" fill="none" xmlns="http://www.w3.org/2000/svg">
<circle cx="322.959" cy="120.617" r="36" fill="#043C5A"/>
<circle cx="322.959" cy="120.617" r="36" fill="#154864"/>
<circle cx="322.959" cy="120.617" r="36" fill="#043C5A"/>
<circle cx="322.959" cy="120.617" r="36" fill="#154864"/>
<circle cx="173.951" cy="175.5" r="36" fill="#043C5A"/>
<circle cx="173.951" cy="175.5" r="36" fill="#154864"/>
<circle cx="286.959" cy="271.5" r="36" fill="#043C5A"/>
<circle cx="286.959" cy="271.5" r="36" fill="#154864"/>
<circle cx="399.967" cy="308.5" r="36" fill="#043C5A"/>
<circle cx="399.967" cy="308.5" r="36" fill="#154864"/>
<circle cx="173.951" cy="291.5" r="36" fill="#043C5A"/>
<circle cx="173.951" cy="291.5" r="36" fill="#154864"/>
<circle cx="82.9097" cy="238.5" r="36" fill="#043C5A"/>
<circle cx="82.9097" cy="238.5" r="36" fill="#154864"/>
<circle cx="143.235" cy="402.5" r="36" fill="#043C5A"/>
<circle cx="143.235" cy="402.5" r="36" fill="#154864"/>
<circle cx="245.951" cy="427.5" r="36" fill="#043C5A"/>
<circle cx="245.951" cy="427.5" r="36" fill="#154864"/>
<circle cx="332.456" cy="380.5" r="36" fill="#043C5A"/>
<circle cx="332.456" cy="380.5" r="36" fill="#154864"/>
<circle cx="137.951" cy="517.5" r="36" fill="#043C5A"/>
<circle cx="137.951" cy="517.5" r="36" fill="#154864"/>
<circle cx="36.8066" cy="354.5" r="36" fill="#043C5A"/>
<circle cx="36.8066" cy="354.5" r="36" fill="#154864"/>
<circle cx="222.798" cy="64" r="36" fill="#043C5A"/>
<circle cx="222.798" cy="64" r="36" fill="#154864"/>
<circle cx="281.951" cy="662.5" r="36" fill="#043C5A"/>
<circle cx="281.951" cy="662.5" r="36" fill="#154864"/>
<circle cx="238.418" cy="562.31" r="36" fill="#043C5A"/>
<circle cx="238.418" cy="562.31" r="36" fill="#154864"/>
<circle cx="358.959" cy="481.5" r="36" fill="#043C5A"/>
<circle cx="358.959" cy="481.5" r="36" fill="#154864"/>
<circle cx="358.959" cy="612.574" r="36" fill="#043C5A"/>
<circle cx="358.959" cy="612.574" r="36" fill="#154864"/>
<circle cx="378" cy="36.5583" r="36" fill="#043C5A"/>
<circle cx="378" cy="36.5583" r="36" fill="#154864"/>
<circle cx="378" cy="211.5" r="36" fill="#043C5A"/>
<circle cx="378" cy="211.5" r="36" fill="#154864"/>
</svg>
