<svg width="25" height="25" viewBox="0 0 25 25" fill="none" xmlns="http://www.w3.org/2000/svg">
<g clip-path="url(#clip0_31_2661)">
<path fill-rule="evenodd" clip-rule="evenodd" d="M1.14795 14.9028C1.34686 14.9028 1.53763 14.9819 1.67828 15.1225C1.81893 15.2632 1.89795 15.4539 1.89795 15.6528V19.4028C1.89795 19.8007 2.05598 20.1822 2.33729 20.4635C2.61859 20.7448 3.00012 20.9028 3.39795 20.9028H21.3979C21.7958 20.9028 22.1773 20.7448 22.4586 20.4635C22.7399 20.1822 22.8979 19.8007 22.8979 19.4028V15.6528C22.8979 15.4539 22.977 15.2632 23.1176 15.1225C23.2583 14.9819 23.449 14.9028 23.6479 14.9028C23.8469 14.9028 24.0376 14.9819 24.1783 15.1225C24.3189 15.2632 24.3979 15.4539 24.3979 15.6528V19.4028C24.3979 20.1985 24.0819 20.9615 23.5193 21.5242C22.9567 22.0868 22.1936 22.4028 21.3979 22.4028H3.39795C2.6023 22.4028 1.83924 22.0868 1.27663 21.5242C0.71402 20.9615 0.397949 20.1985 0.397949 19.4028V15.6528C0.397949 15.4539 0.476967 15.2632 0.617619 15.1225C0.758271 14.9819 0.949037 14.9028 1.14795 14.9028Z" fill="#D28728"/>
<path fill-rule="evenodd" clip-rule="evenodd" d="M11.8678 17.834C11.9375 17.9038 12.0203 17.9592 12.1114 17.997C12.2025 18.0349 12.3002 18.0543 12.3988 18.0543C12.4975 18.0543 12.5952 18.0349 12.6863 17.997C12.7774 17.9592 12.8602 17.9038 12.9298 17.834L17.4298 13.334C17.5707 13.1931 17.6498 13.0021 17.6498 12.803C17.6498 12.6038 17.5707 12.4128 17.4298 12.272C17.289 12.1311 17.098 12.052 16.8988 12.052C16.6997 12.052 16.5087 12.1311 16.3678 12.272L13.1488 15.4925V2.30298C13.1488 2.10407 13.0698 1.9133 12.9292 1.77265C12.7885 1.632 12.5977 1.55298 12.3988 1.55298C12.1999 1.55298 12.0092 1.632 11.8685 1.77265C11.7279 1.9133 11.6488 2.10407 11.6488 2.30298V15.4925L8.42984 12.272C8.28901 12.1311 8.098 12.052 7.89884 12.052C7.69967 12.052 7.50867 12.1311 7.36784 12.272C7.22701 12.4128 7.14789 12.6038 7.14789 12.803C7.14789 13.0021 7.22701 13.1931 7.36784 13.334L11.8678 17.834Z" fill="#D28728"/>
</g>
<defs>
<clipPath id="clip0_31_2661">
<rect width="24" height="24" fill="white" transform="translate(0.397949 0.0529785)"/>
</clipPath>
</defs>
</svg>
