<svg width="24" height="25" viewBox="0 0 24 25" fill="none" xmlns="http://www.w3.org/2000/svg">
<path d="M14.742 6.30811C13.5491 6.30745 12.4053 5.83321 11.562 4.98961L10.317 3.74761C10.0365 3.46702 9.65625 3.30898 9.2595 3.30811H3.75C3.35706 3.30803 2.97979 3.46215 2.69929 3.73732C2.41879 4.01249 2.25747 4.38674 2.25 4.77961L2.319 6.30811H0.819L0.75 4.80811C0.75 4.01246 1.06607 3.24939 1.62868 2.68679C2.19129 2.12418 2.95435 1.80811 3.75 1.80811H9.258C10.0536 1.80828 10.8165 2.12446 11.379 2.68711L12.621 3.92911C13.1835 4.49175 13.9464 4.80794 14.742 4.80811V6.30811Z" fill="#6C757D"/>
<path fill-rule="evenodd" clip-rule="evenodd" d="M20.7145 6.30811H3.28452C3.07615 6.30809 2.87006 6.35149 2.67939 6.43554C2.48873 6.51959 2.31766 6.64244 2.1771 6.79627C2.03654 6.95009 1.92958 7.13151 1.86302 7.32897C1.79646 7.52642 1.77177 7.73558 1.79052 7.94311L2.74602 18.4431C2.7797 18.8158 2.95147 19.1624 3.22761 19.415C3.50375 19.6675 3.86431 19.8078 4.23852 19.8081H19.7605C20.1347 19.8078 20.4953 19.6675 20.7714 19.415C21.0476 19.1624 21.2193 18.8158 21.253 18.4431L22.2085 7.94311C22.2273 7.73558 22.2026 7.52642 22.136 7.32897C22.0695 7.13151 21.9625 6.95009 21.8219 6.79627C21.6814 6.64244 21.5103 6.51959 21.3196 6.43554C21.129 6.35149 20.9229 6.30809 20.7145 6.30811ZM3.28452 4.80811C2.86764 4.80806 2.45533 4.8949 2.07388 5.06309C1.69243 5.23128 1.35022 5.47712 1.06908 5.78494C0.787944 6.09275 0.574043 6.45578 0.441026 6.85087C0.308008 7.24596 0.258793 7.66444 0.296521 8.07961L1.25202 18.5796C1.31976 19.325 1.66366 20.0181 2.21622 20.5229C2.76877 21.0278 3.49008 21.3078 4.23852 21.3081H19.7605C20.509 21.3078 21.2303 21.0278 21.7828 20.5229C22.3354 20.0181 22.6793 19.325 22.747 18.5796L23.7025 8.07961C23.7402 7.66444 23.691 7.24596 23.558 6.85087C23.425 6.45578 23.2111 6.09275 22.93 5.78494C22.6488 5.47712 22.3066 5.23128 21.9252 5.06309C21.5437 4.8949 21.1314 4.80806 20.7145 4.80811H3.28452Z" fill="#6C757D"/>
</svg>
